# xmcd
#
# Track frame offsets:
#	150
#	23401
#	39375
#	69561
#	87169
#	104111
#	129033
#	146051
#	184037
#	220714
#	247861
#	269411
#	292745
#	317846
#
# Disc length: 4489
#
# Revision: 1
# Processed by: cddbd v1.5.1PL0 Copyright (c) Steve Scherf et al.
# Submitted via: EasyCDDAExtractor 4.6.0.1
# Normalized: r0:TDELIM( - )
#
DISCID=be11870e
DTITLE=Alter Ego - Colors of asian beat
DYEAR=1999
DGENRE=pop
TTITLE0=Pressure drop - The Calling
TTITLE1=Amanda Shankow - Jumping Jack Flash
TTITLE2=Badmarch - The Asian Detective
TTITLE3=Nukta - Bindi
TTITLE4=Nusrat Fateh Ali Khan - Musst Musst
TTITLE5=Sonorous Star - Indian Motorcycles
TTITLE6=Rari Bill Harris - Shame Beat
TTITLE7=Badmarch and Shri - Lament
TTITLE8=Badmarch - That type of Badmarch
TTITLE9=Ges E and Usman - Dah Din Beats
TTITLE10=No Magic - Funksta
TTITLE11=Nizag Chag - Walk Alone
TTITLE12=The Dave Pike Set - Mathar
TTITLE13=Mukta - NGC 224
EXTD=
EXTT0=
EXTT1=
EXTT2=
EXTT3=
EXTT4=
EXTT5=
EXTT6=
EXTT7=
EXTT8=
EXTT9=
EXTT10=
EXTT11=
EXTT12=
EXTT13=
PLAYORDER=
